<mxfile host="app.diagrams.net" modified="2024-03-18T04:31:13.048Z" agent="Mozilla/5.0 (Windows NT 10.0; Win64; x64) AppleWebKit/537.36 (KHTML, like Gecko) Chrome/122.0.0.0 Safari/537.36 Edg/122.0.0.0" version="24.0.7" etag="nHmQF3gwqrtxab8sqcbC" type="device">
  <diagram id="eGcvAlP_UvdOgn25fv2F" name="Page-1">
    <mxGraphModel dx="925" dy="594" grid="1" gridSize="10" guides="1" tooltips="1" connect="1" arrows="1" fold="1" page="1" pageScale="1" pageWidth="850" pageHeight="1100" math="0" shadow="0">
      <root>
        <mxCell id="0" />
        <mxCell id="1" parent="0" />
        <mxCell id="1ulU4V-rtROwb29qYS1P-1" value="Process Business Pembuatan Laporan Temuan Patrol" style="swimlane;html=1;childLayout=stackLayout;resizeParent=1;resizeParentMax=0;startSize=20;horizontal=0;horizontalStack=1;whiteSpace=wrap;" vertex="1" parent="1">
          <mxGeometry x="280" y="90" width="230" height="680" as="geometry">
            <mxRectangle x="210" y="20" width="40" height="190" as="alternateBounds" />
          </mxGeometry>
        </mxCell>
        <mxCell id="1ulU4V-rtROwb29qYS1P-2" value="EHS" style="swimlane;html=1;startSize=20;" vertex="1" parent="1ulU4V-rtROwb29qYS1P-1">
          <mxGeometry x="20" width="210" height="680" as="geometry">
            <mxRectangle x="20" width="40" height="480" as="alternateBounds" />
          </mxGeometry>
        </mxCell>
        <mxCell id="1ulU4V-rtROwb29qYS1P-3" style="edgeStyle=orthogonalEdgeStyle;rounded=0;orthogonalLoop=1;jettySize=auto;html=1;" edge="1" parent="1ulU4V-rtROwb29qYS1P-2" source="1ulU4V-rtROwb29qYS1P-4" target="1ulU4V-rtROwb29qYS1P-6">
          <mxGeometry relative="1" as="geometry" />
        </mxCell>
        <mxCell id="1ulU4V-rtROwb29qYS1P-4" value="Login" style="points=[[0.25,0,0],[0.5,0,0],[0.75,0,0],[1,0.25,0],[1,0.5,0],[1,0.75,0],[0.75,1,0],[0.5,1,0],[0.25,1,0],[0,0.75,0],[0,0.5,0],[0,0.25,0]];shape=mxgraph.bpmn.task;whiteSpace=wrap;rectStyle=rounded;size=10;html=1;container=1;expand=0;collapsible=0;taskMarker=abstract;" vertex="1" parent="1ulU4V-rtROwb29qYS1P-2">
          <mxGeometry x="62.5" y="100" width="85" height="30" as="geometry" />
        </mxCell>
        <mxCell id="1ulU4V-rtROwb29qYS1P-5" style="edgeStyle=orthogonalEdgeStyle;rounded=0;orthogonalLoop=1;jettySize=auto;html=1;" edge="1" parent="1ulU4V-rtROwb29qYS1P-2" source="1ulU4V-rtROwb29qYS1P-6" target="1ulU4V-rtROwb29qYS1P-8">
          <mxGeometry relative="1" as="geometry" />
        </mxCell>
        <mxCell id="1ulU4V-rtROwb29qYS1P-6" value="Membuka halaman Laporan Patrol" style="points=[[0.25,0,0],[0.5,0,0],[0.75,0,0],[1,0.25,0],[1,0.5,0],[1,0.75,0],[0.75,1,0],[0.5,1,0],[0.25,1,0],[0,0.75,0],[0,0.5,0],[0,0.25,0]];shape=mxgraph.bpmn.task;whiteSpace=wrap;rectStyle=rounded;size=10;html=1;container=1;expand=0;collapsible=0;taskMarker=abstract;" vertex="1" parent="1ulU4V-rtROwb29qYS1P-2">
          <mxGeometry x="47.5" y="150" width="115" height="60" as="geometry" />
        </mxCell>
        <mxCell id="1ulU4V-rtROwb29qYS1P-7" style="edgeStyle=orthogonalEdgeStyle;rounded=0;orthogonalLoop=1;jettySize=auto;html=1;" edge="1" parent="1ulU4V-rtROwb29qYS1P-2" source="1ulU4V-rtROwb29qYS1P-8" target="1ulU4V-rtROwb29qYS1P-12">
          <mxGeometry relative="1" as="geometry" />
        </mxCell>
        <mxCell id="1ulU4V-rtROwb29qYS1P-8" value="Menekan tombol see detail pada jadwal laporan patrol" style="points=[[0.25,0,0],[0.5,0,0],[0.75,0,0],[1,0.25,0],[1,0.5,0],[1,0.75,0],[0.75,1,0],[0.5,1,0],[0.25,1,0],[0,0.75,0],[0,0.5,0],[0,0.25,0]];shape=mxgraph.bpmn.task;whiteSpace=wrap;rectStyle=rounded;size=10;html=1;container=1;expand=0;collapsible=0;taskMarker=abstract;" vertex="1" parent="1ulU4V-rtROwb29qYS1P-2">
          <mxGeometry x="43.75" y="240" width="122.5" height="60" as="geometry" />
        </mxCell>
        <mxCell id="1ulU4V-rtROwb29qYS1P-9" style="edgeStyle=orthogonalEdgeStyle;rounded=0;orthogonalLoop=1;jettySize=auto;html=1;" edge="1" parent="1ulU4V-rtROwb29qYS1P-2" source="1ulU4V-rtROwb29qYS1P-10" target="1ulU4V-rtROwb29qYS1P-4">
          <mxGeometry relative="1" as="geometry" />
        </mxCell>
        <mxCell id="1ulU4V-rtROwb29qYS1P-10" value="" style="points=[[0.145,0.145,0],[0.5,0,0],[0.855,0.145,0],[1,0.5,0],[0.855,0.855,0],[0.5,1,0],[0.145,0.855,0],[0,0.5,0]];shape=mxgraph.bpmn.event;html=1;verticalLabelPosition=bottom;labelBackgroundColor=#ffffff;verticalAlign=top;align=center;perimeter=ellipsePerimeter;outlineConnect=0;aspect=fixed;outline=standard;symbol=general;fillColor=#00FF00;strokeColor=#2D7600;fontColor=#ffffff;" vertex="1" parent="1ulU4V-rtROwb29qYS1P-2">
          <mxGeometry x="90" y="50" width="30" height="30" as="geometry" />
        </mxCell>
        <mxCell id="1ulU4V-rtROwb29qYS1P-15" style="edgeStyle=orthogonalEdgeStyle;rounded=0;orthogonalLoop=1;jettySize=auto;html=1;" edge="1" parent="1ulU4V-rtROwb29qYS1P-2" source="1ulU4V-rtROwb29qYS1P-12" target="1ulU4V-rtROwb29qYS1P-14">
          <mxGeometry relative="1" as="geometry" />
        </mxCell>
        <mxCell id="1ulU4V-rtROwb29qYS1P-12" value="Menekan tombol buat temuan" style="points=[[0.25,0,0],[0.5,0,0],[0.75,0,0],[1,0.25,0],[1,0.5,0],[1,0.75,0],[0.75,1,0],[0.5,1,0],[0.25,1,0],[0,0.75,0],[0,0.5,0],[0,0.25,0]];shape=mxgraph.bpmn.task;whiteSpace=wrap;rectStyle=rounded;size=10;html=1;container=1;expand=0;collapsible=0;taskMarker=abstract;" vertex="1" parent="1ulU4V-rtROwb29qYS1P-2">
          <mxGeometry x="37.5" y="330" width="135" height="60" as="geometry" />
        </mxCell>
        <mxCell id="1ulU4V-rtROwb29qYS1P-18" style="edgeStyle=orthogonalEdgeStyle;rounded=0;orthogonalLoop=1;jettySize=auto;html=1;" edge="1" parent="1ulU4V-rtROwb29qYS1P-2" source="1ulU4V-rtROwb29qYS1P-14" target="1ulU4V-rtROwb29qYS1P-16">
          <mxGeometry relative="1" as="geometry" />
        </mxCell>
        <mxCell id="1ulU4V-rtROwb29qYS1P-14" value="Mengisi formulir data" style="points=[[0.25,0,0],[0.5,0,0],[0.75,0,0],[1,0.25,0],[1,0.5,0],[1,0.75,0],[0.75,1,0],[0.5,1,0],[0.25,1,0],[0,0.75,0],[0,0.5,0],[0,0.25,0]];shape=mxgraph.bpmn.task;whiteSpace=wrap;rectStyle=rounded;size=10;html=1;container=1;expand=0;collapsible=0;taskMarker=abstract;" vertex="1" parent="1ulU4V-rtROwb29qYS1P-2">
          <mxGeometry x="45" y="430" width="120" height="60" as="geometry" />
        </mxCell>
        <mxCell id="1ulU4V-rtROwb29qYS1P-19" style="edgeStyle=orthogonalEdgeStyle;rounded=0;orthogonalLoop=1;jettySize=auto;html=1;" edge="1" parent="1ulU4V-rtROwb29qYS1P-2" source="1ulU4V-rtROwb29qYS1P-16" target="1ulU4V-rtROwb29qYS1P-17">
          <mxGeometry relative="1" as="geometry" />
        </mxCell>
        <mxCell id="1ulU4V-rtROwb29qYS1P-16" value="Menekan tombol submit" style="points=[[0.25,0,0],[0.5,0,0],[0.75,0,0],[1,0.25,0],[1,0.5,0],[1,0.75,0],[0.75,1,0],[0.5,1,0],[0.25,1,0],[0,0.75,0],[0,0.5,0],[0,0.25,0]];shape=mxgraph.bpmn.task;whiteSpace=wrap;rectStyle=rounded;size=10;html=1;container=1;expand=0;collapsible=0;taskMarker=abstract;" vertex="1" parent="1ulU4V-rtROwb29qYS1P-2">
          <mxGeometry x="45" y="520" width="120" height="60" as="geometry" />
        </mxCell>
        <mxCell id="1ulU4V-rtROwb29qYS1P-17" value="" style="points=[[0.145,0.145,0],[0.5,0,0],[0.855,0.145,0],[1,0.5,0],[0.855,0.855,0],[0.5,1,0],[0.145,0.855,0],[0,0.5,0]];shape=mxgraph.bpmn.event;html=1;verticalLabelPosition=bottom;labelBackgroundColor=#ffffff;verticalAlign=top;align=center;perimeter=ellipsePerimeter;outlineConnect=0;aspect=fixed;outline=end;symbol=terminate;fillColor=#f8cecc;strokeColor=#b85450;gradientColor=#ea6b66;" vertex="1" parent="1ulU4V-rtROwb29qYS1P-2">
          <mxGeometry x="90" y="620" width="30" height="30" as="geometry" />
        </mxCell>
      </root>
    </mxGraphModel>
  </diagram>
</mxfile>
